Coordinates
version=1
nRows=26
nColumns=30
inDegrees=yes

Units are S.I. units (second, meters, Newtons, ...)
Angles are in degrees.

endheader
time	floatyaw	floatroll	floatpitch	floatx	floaty	floatz	pro_sup_l	deviation_l	flexion_l	cmc_flexion_l	cmc_abduction_l	mp_flexion_l	ip_flexion_l	2mcp_flexion_l	2mcp_abduction_l	2pm_flexion_l	2md_flexion_l	3mcp_flexion_l	3mcp_abduction_l	3pm_flexion_l	3md_flexion_l	4mcp_flexion_l	4mcp_abduction_l	4pm_flexion_l	4md_flexion_l	5mcp_flexion_l	5mcp_abduction_l	5pm_flexion_l	5md_flexion_l
-1.495000	-160.147433	-5.066637	-73.570646	0.082050	-0.182183	-0.015947	100.006324	4.040741	0.437261	18.869616	9.886345	-25.330637	-42.969763	27.589376	6.392974	43.198003	29.240661	23.909804	3.820152	42.383804	27.595975	12.289367	-4.214928	50.424314	34.358840	0.538011	-7.530491	58.669798	40.883492
-1.485000	-160.147433	-5.066637	-73.570646	0.082044	-0.182183	-0.015943	100.000498	4.040235	0.437229	18.870586	9.959873	-25.344488	-42.997011	27.596727	6.391445	43.215931	29.252791	23.907478	3.820419	42.392806	27.612729	12.288249	-4.215979	50.435340	34.369730	0.540960	-7.546129	58.713393	40.916186
-1.475000	-160.147433	-5.066637	-73.570646	0.082039	-0.182181	-0.015941	100.005141	4.042512	0.436059	18.876545	10.021683	-25.354701	-43.026818	27.610982	6.392387	43.222741	29.259272	23.907684	3.818147	42.406282	27.627360	12.290177	-4.215493	50.447244	34.374196	0.542554	-7.557696	58.763733	40.940551
-1.465000	-160.147433	-5.066637	-73.570646	0.082038	-0.182175	-0.015941	100.019244	4.046838	0.436785	18.883244	10.064856	-25.366514	-43.057907	27.625950	6.395833	43.215024	29.258963	23.907622	3.814464	42.418448	27.637684	12.291981	-4.213623	50.456273	34.372793	0.537223	-7.562744	58.814617	40.956834
-1.455000	-160.147433	-5.066637	-73.570646	0.082039	-0.182167	-0.015943	100.037877	4.051354	0.440936	18.884516	10.088938	-25.381915	-43.085409	27.635101	6.401773	43.195728	29.254447	23.905158	3.810925	42.427873	27.644999	12.290660	-4.210634	50.461229	34.368702	0.522594	-7.561234	58.861636	40.968217
-1.445000	-160.147433	-5.066637	-73.570646	0.082040	-0.182158	-0.015946	100.054166	4.054274	0.448102	18.874562	10.100774	-25.397509	-43.100996	27.634428	6.409787	43.172535	29.250388	23.899302	3.808839	42.437531	27.653061	12.284528	-4.206913	50.463778	34.366104	0.500500	-7.555450	58.902503	40.978566
-1.435000	-160.147433	-5.066637	-73.570646	0.082039	-0.182152	-0.015947	100.062498	4.055037	0.456717	18.850705	10.111282	-25.406796	-43.097026	27.623826	6.418618	43.154135	29.250820	23.890135	3.808822	42.451391	27.665103	12.273829	-4.203037	50.466836	34.367894	0.475816	-7.548812	58.935967	40.989925
-1.425000	-160.147433	-5.066637	-73.570646	0.082036	-0.182148	-0.015944	100.061050	4.054621	0.465433	18.814582	10.130441	-25.404628	-43.071236	27.606571	6.426214	43.146524	29.257152	23.878352	3.810744	42.470535	27.681270	12.260474	-4.199778	50.472397	34.374239	0.454094	-7.544336	58.960292	41.001206
-1.415000	-160.147433	-5.066637	-73.570646	0.082031	-0.182144	-0.015936	100.052157	4.054850	0.474057	18.770935	10.163509	-25.390374	-43.028370	27.587735	6.430419	43.150965	29.267837	23.864930	3.813993	42.491459	27.698177	12.247075	-4.197980	50.480346	34.382822	0.439408	-7.543558	58.972716	41.008836
-1.405000	-160.147433	-5.066637	-73.570646	0.082027	-0.182138	-0.015925	100.040501	4.057210	0.483430	18.725032	10.209745	-25.367895	-42.977792	27.572566	6.430008	43.164166	29.279515	23.851253	3.817860	42.507124	27.710500	12.235744	-4.198287	50.488849	34.390464	0.433227	-7.546234	58.970600	41.009011
-1.395000	-160.147433	-5.066637	-73.570646	0.082026	-0.182128	-0.015912	100.030405	4.061910	0.494433	18.680483	10.263135	-25.343022	-42.928910	27.565277	6.425455	43.180209	29.288772	23.839408	3.821796	42.509843	27.713439	12.227141	-4.200810	50.495809	34.394976	0.434228	-7.550726	58.953702	41.000251
-1.385000	-160.147433	-5.066637	-73.570646	0.082029	-0.182114	-0.015901	100.023867	4.067678	0.506886	18.638580	10.314341	-25.320626	-42.887233	27.568162	6.418996	43.193173	29.293593	23.831988	3.825453	42.494835	27.704922	12.220237	-4.204950	50.500358	34.396182	0.438804	-7.554812	58.926109	40.984789
-1.375000	-160.147433	-5.066637	-73.570646	0.082035	-0.182100	-0.015895	100.020306	4.072344	0.519138	18.598991	10.353821	-25.302999	-42.852963	27.580937	6.413885	43.199462	29.294022	23.830992	3.828562	42.463285	27.686909	12.212946	-4.209525	50.503514	34.395703	0.442202	-7.556694	58.896283	40.968006
-1.365000	-160.147433	-5.066637	-73.570646	0.082043	-0.182092	-0.015895	100.017798	4.073903	0.528611	18.560948	10.375966	-25.290071	-42.822455	27.600569	6.413181	43.199046	29.291942	23.836311	3.830831	42.423569	27.665389	12.203359	-4.213223	50.507701	34.395896	0.440214	-7.555839	58.874614	40.956249
-1.355000	-160.147433	-5.066637	-73.570646	0.082049	-0.182092	-0.015901	100.014765	4.071487	0.532931	18.524142	10.382579	-25.280979	-42.791706	27.622144	6.418566	43.195103	29.290058	23.844956	3.831991	42.389470	27.648735	12.190939	-4.215131	50.515389	34.398659	0.431011	-7.553261	58.869323	40.954159
-1.345000	-160.147433	-5.066637	-73.570646	0.082051	-0.182101	-0.015912	100.011065	4.065764	0.530949	18.489032	10.383160	-25.275948	-42.760276	27.640838	6.429715	43.192131	29.290403	23.851929	3.832005	42.375347	27.644635	12.177040	-4.215035	50.527604	34.404677	0.416326	-7.551108	58.882848	40.962800
-1.335000	-160.147433	-5.066637	-73.570646	0.082048	-0.182117	-0.015926	100.008092	4.058583	0.523186	18.456652	10.390770	-25.277167	-42.733326	27.653971	6.444520	43.193503	29.293160	23.852487	3.831241	42.390063	27.656707	12.164449	-4.213347	50.543185	34.413271	0.401120	-7.551772	58.910892	40.979438
-1.325000	-160.147433	-5.066637	-73.570646	0.082041	-0.182133	-0.015941	100.008086	4.052103	0.511638	18.428108	10.415196	-25.287790	-42.719863	27.661739	6.460078	43.199935	29.296633	23.844458	3.830390	42.432814	27.682662	12.156123	-4.210774	50.559317	34.422729	0.391452	-7.556871	58.944804	40.998925
-1.315000	-160.147433	-5.066637	-73.570646	0.082033	-0.182145	-0.015954	100.013083	4.047888	0.499104	18.403982	10.457291	-25.309526	-42.727569	27.666211	6.473899	43.209637	29.298399	23.829175	3.830090	42.493424	27.715259	12.153759	-4.208013	50.573031	34.430878	0.391353	-7.566414	58.975837	41.015848
-1.305000	-160.147433	-5.066637	-73.570646	0.082027	-0.182150	-0.015966	100.023936	4.046471	0.488276	18.383923	10.508018	-25.340641	-42.757665	27.669639	6.484662	43.219636	29.296676	23.810573	3.830498	42.557130	27.745630	12.156952	-4.205588	50.582666	34.435669	0.400459	-7.578506	58.998769	41.026320
-1.295000	-160.147433	-5.066637	-73.570646	0.082024	-0.182148	-0.015975	100.039862	4.047559	0.480843	18.366705	10.552873	-25.376078	-42.803774	27.673461	6.492196	43.227191	29.290855	23.793178	3.831160	42.611192	27.767044	12.163433	-4.203814	50.588410	34.435688	0.414020	-7.589857	59.013076	41.028717
-1.285000	-160.147433	-5.066637	-73.570646	0.082025	-0.182142	-0.015982	100.058747	4.050595	0.476917	18.350649	10.579089	-25.409662	-42.855591	27.678372	6.497012	43.230784	29.281162	23.780158	3.831336	42.649876	27.777187	12.170207	-4.202802	50.591973	34.430645	0.425599	-7.597090	59.021568	41.023396
-1.275000	-160.147433	-5.066637	-73.570646	0.082028	-0.182136	-0.015988	100.077896	4.055157	0.475150	18.334124	10.581741	-25.436703	-42.904198	27.684727	6.499868	43.230701	29.268337	23.772219	3.830566	42.675657	27.778326	12.174826	-4.202479	50.596002	34.421834	0.430802	-7.598288	59.027862	41.011944
-1.265000	-160.147433	-5.066637	-73.570646	0.082031	-0.182133	-0.015991	100.094626	4.060857	0.473660	18.315795	10.565968	-25.455202	-42.944824	27.692505	6.501569	43.229158	29.253891	23.767542	3.829038	42.696522	27.775763	12.176015	-4.202655	50.603482	34.412219	0.429467	-7.593934	59.034249	40.996568
-1.255000	-160.147433	-5.066637	-73.570646	0.082032	-0.182132	-0.015992	100.106504	4.066982	0.471383	18.294539	10.544705	-25.465191	-42.975642	27.700901	6.502794	43.229636	29.240521	23.762687	3.827523	42.720867	27.775361	12.173504	-4.203110	50.616795	34.405648	0.424829	-7.586680	59.040819	40.979764
-1.245000	-160.147433	-5.066637	-73.570646	0.082030	-0.182134	-0.015990	100.111568	4.072395	0.469042	18.269166	10.533237	-25.467193	-42.994734	27.708270	6.503776	43.235401	29.231769	23.754167	3.826969	42.752510	27.780968	12.167610	-4.203671	50.636268	34.405130	0.420592	-7.580017	59.045697	40.963935
